<?xml version="1.0" encoding="UTF-8" standalone="no"?>
<svg width="106px" height="13px" viewBox="0 0 106 13" version="1.1" xmlns="http://www.w3.org/2000/svg" xmlns:xlink="http://www.w3.org/1999/xlink">
    <!-- Generator: Sketch 39.1 (31720) - http://www.bohemiancoding.com/sketch -->
    <title>logo</title>
    <desc>Created with Sketch.</desc>
    <defs></defs>
    <g id="Page-1" stroke="none" stroke-width="1" fill="none" fill-rule="evenodd">
        <g id="logo" transform="translate(0.000000, -1.000000)" fill="#333333">
            <path d="M8.2734375,10.921875 L0.8671875,7.671875 L0.8671875,7.1953125 L8.2734375,3.4921875 L8.2734375,4.234375 L1.84375,7.3984375 L8.2734375,10.171875 L8.2734375,10.921875 Z M17.109375,13 L14.7265625,13 L14.7265625,1.578125 L21.2734375,1.578125 L21.2734375,3.5625 L17.109375,3.5625 L17.109375,6.5078125 L20.984375,6.5078125 L20.984375,8.484375 L17.109375,8.484375 L17.109375,13 Z M23.5078125,13 L23.5078125,1.578125 L25.9296875,1.578125 L25.9296875,13 L23.5078125,13 Z M38.9375,13 L35.859375,13 L30.890625,4.359375 L30.8203125,4.359375 C30.9192713,5.8854243 30.96875,6.97395508 30.96875,7.625 L30.96875,13 L28.8046875,13 L28.8046875,1.578125 L31.859375,1.578125 L36.8203125,10.1328125 L36.875,10.1328125 C36.7968746,8.64843008 36.7578125,7.59896141 36.7578125,6.984375 L36.7578125,1.578125 L38.9375,1.578125 L38.9375,13 Z M49.796875,1.578125 L45.5390625,13 L44.7265625,13 L48.9765625,1.578125 L49.796875,1.578125 Z M58.734375,13 L57.9296875,13 L57.9296875,2.328125 L54.21875,2.328125 L54.21875,1.578125 L62.4453125,1.578125 L62.4453125,2.328125 L58.734375,2.328125 L58.734375,13 Z M70.3828125,13 L64.140625,13 L64.140625,1.578125 L70.3828125,1.578125 L70.3828125,2.3125 L64.9375,2.3125 L64.9375,6.6328125 L70.078125,6.6328125 L70.078125,7.3671875 L64.9375,7.3671875 L64.9375,12.265625 L70.3828125,12.265625 L70.3828125,13 Z M77.84375,2.1328125 C76.4114512,2.1328125 75.2838583,2.59114125 74.4609375,3.5078125 C73.6380167,4.42448375 73.2265625,5.67967953 73.2265625,7.2734375 C73.2265625,8.90365398 73.6145795,10.1692663 74.390625,11.0703125 C75.1666705,11.9713587 76.2760345,12.421875 77.71875,12.421875 C78.6770881,12.421875 79.5572877,12.2994804 80.359375,12.0546875 L80.359375,12.7578125 C79.6041629,13.0234388 78.661464,13.15625 77.53125,13.15625 C75.9270753,13.15625 74.6640671,12.638026 73.7421875,11.6015625 C72.8203079,10.565099 72.359375,9.1171968 72.359375,7.2578125 C72.359375,6.09634836 72.5794249,5.07292109 73.0195312,4.1875 C73.4596376,3.30207891 74.0924438,2.61849199 74.9179688,2.13671875 C75.7434937,1.65494551 76.7031195,1.4140625 77.796875,1.4140625 C78.9114639,1.4140625 79.9088498,1.62239375 80.7890625,2.0390625 L80.46875,2.7578125 C79.6354125,2.34114375 78.7604213,2.1328125 77.84375,2.1328125 L77.84375,2.1328125 Z M91.1796875,13 L90.375,13 L90.375,7.3828125 L83.703125,7.3828125 L83.703125,13 L82.90625,13 L82.90625,1.578125 L83.703125,1.578125 L83.703125,6.6484375 L90.375,6.6484375 L90.375,1.578125 L91.1796875,1.578125 L91.1796875,13 Z M97.8203125,10.171875 L104.25,7.3984375 L97.8203125,4.234375 L97.8203125,3.4921875 L105.226562,7.1953125 L105.226562,7.671875 L97.8203125,10.921875 L97.8203125,10.171875 Z"></path>
        </g>
    </g>
</svg>